<svg xmlns="http://www.w3.org/2000/svg" xmlns:xlink="http://www.w3.org/1999/xlink" width="512" height="512" viewBox="0 0 512 512">
  <defs>
    <linearGradient id="linear-gradient" x1="0.5" x2="0.5" y2="1" gradientUnits="objectBoundingBox">
      <stop offset="0" stop-color="#0cf1a7"/>
      <stop offset="1" stop-color="#d822fd"/>
    </linearGradient>
  </defs>
  <g id="Group_2" data-name="Group 2" transform="translate(-1007 -303)">
    <g id="square_icon" transform="translate(950 -38)">
      <g id="Rectangle_1" data-name="Rectangle 1" transform="translate(57 341)" stroke="#707070" stroke-width="1" fill="url(#linear-gradient)">
        <rect width="512" height="512" stroke="none"/>
        <rect x="0.5" y="0.5" width="511" height="511" fill="none"/>
      </g>
    </g>
    <g id="increase-up-profit" transform="translate(1082.004 458.778)">
      <path id="Path_1" data-name="Path 1" d="M5.989,166.489a19.77,19.77,0,1,0,27.573,28.339l81.453-79.479,68.108,65.722a19.775,19.775,0,0,0,27.956-.53L322.344,67.95v56.767a19.826,19.826,0,0,0,39.651,0V19.755h-.059a19.732,19.732,0,0,0-21-19.708H242.747a19.826,19.826,0,1,0,0,39.651h51.935L196.5,139.033,128.654,73.547a19.744,19.744,0,0,0-27.485.088L5.989,166.489Z" transform="translate(0 0)" fill="#fff"/>
    </g>
  </g>
</svg>
