<svg xmlns="http://www.w3.org/2000/svg" xmlns:xlink="http://www.w3.org/1999/xlink" width="1024" height="512" viewBox="0 0 1024 512">
  <defs>
    <linearGradient id="linear-gradient" x1="0.5" x2="0.5" y2="1" gradientUnits="objectBoundingBox">
      <stop offset="0" stop-color="#0cf1a7"/>
      <stop offset="1" stop-color="#d822fd"/>
    </linearGradient>
    <clipPath id="clip-poster">
      <rect width="1024" height="512"/>
    </clipPath>
  </defs>
  <g id="poster" clip-path="url(#clip-poster)">
    <rect width="1024" height="512" fill="url(#linear-gradient)"/>
    <path id="Path_2" data-name="Path 2" d="M5.989,166.489a19.77,19.77,0,1,0,27.573,28.339l81.453-79.479,68.108,65.722a19.775,19.775,0,0,0,27.956-.53L322.344,67.95v56.767a19.826,19.826,0,0,0,39.651,0V19.755h-.059a19.732,19.732,0,0,0-21-19.708H242.747a19.826,19.826,0,1,0,0,39.651h51.935L196.5,139.033,128.654,73.547a19.744,19.744,0,0,0-27.485.088L5.989,166.489Z" transform="translate(55.004 155.778)" fill="#fff"/>
    <text id="AMC" transform="translate(537 301)" fill="#fff" font-size="176" font-family="SegoeUI, Segoe UI"><tspan x="0" y="0">AMC</tspan></text>
    <text id="SOLANA" transform="translate(728 150)" fill="#fff" font-size="48" font-family="SegoeUI, Segoe UI"><tspan x="-91.758" y="0">SOLANA</tspan></text>
    <text id="Smartest_AMC_on_Fastest_Blockchain" data-name="Smartest AMC on Fastest Blockchain" transform="translate(512 408)" fill="#fff" font-size="48" font-family="SegoeUI, Segoe UI"><tspan x="-384.023" y="0">Smartest AMC on Fastest Blockchain</tspan></text>
  </g>
</svg>
