<?xml version="1.0" encoding="utf-8"?>
<!-- Generator: Adobe Illustrator 23.0.6, SVG Export Plug-In . SVG Version: 6.00 Build 0)  -->
<svg version="1.1" id="Capa_1" xmlns="http://www.w3.org/2000/svg" xmlns:xlink="http://www.w3.org/1999/xlink" x="0px" y="0px"
	 viewBox="0 0 4000 4000" style="enable-background:new 0 0 4000 4000;" xml:space="preserve">
<style type="text/css">
	.st0{fill:url(#SVGID_1_);}
	.st1{fill:#F7F7F8;}
	.st2{fill:#EC9E00;}
	.st3{fill:#FFFFFF;}
</style>
<rect x="0" y="0" width="4000" height="4000"/>
<radialGradient id="SVGID_1_" cx="2000" cy="2151.8684" r="1072.7709" gradientUnits="userSpaceOnUse">
	<stop  offset="0" style="stop-color:#EC9E00"/>
	<stop  offset="1" style="stop-color:#000000"/>
</radialGradient>
<circle class="st0" cx="2000" cy="2151.87" r="1072.77"/>
<path class="st1" d="M1713.55,1096.4l565.13-0.82c22.47-0.05,40.69-20.86,40.69-46.67c-0.11-25.7-18.35-46.58-40.78-46.6
	l-565.13,0.89c-22.4,0.02-40.57,20.95-40.55,46.63C1672.95,1075.63,1691.19,1096.44,1713.55,1096.4z"/>
<path class="st1" d="M1713.36,966.17l565.17-0.86c22.47-0.05,40.71-21.13,40.64-46.7c-0.05-25.82-18.28-46.72-40.78-46.68
	l-60.43,0.11l-61.06-123.76c0,0-29.37-39.82-44.62-44.1c-14.96-4.41-188.97-23.49-242.86,0.34c0,0-26.29,7.58-46.7,47.44
	c-15.85,30.39-49.13,92.76-64.07,120.73l-45.4,0.07c-22.36,0.04-40.55,21.04-40.5,46.85
	C1672.77,945.2,1690.98,966.21,1713.36,966.17z"/>
<path class="st1" d="M1713.75,1226.72l565.13-0.87c22.52-0.03,40.73-20.92,40.66-46.68c-0.04-25.84-18.3-46.69-40.76-46.63
	l-565.13,0.84c-22.4,0.05-40.53,20.92-40.53,46.77C1673.16,1205.91,1691.37,1226.76,1713.75,1226.72z"/>
<g>
	<path class="st2" d="M950.84,1674.25c47.61,23.72,95.24,47.43,142.87,71.15c27.71,13.84,66.44,8.42,81.62-22.01
		c0.11-0.25,0.23-0.5,0.36-0.8c13.87-27.8,8.42-66.46-21.97-81.58c-47.68-23.73-95.28-47.45-142.89-71.17
		c-26.87-15.42-67.19-7.2-81.58,21.95c-5.89,10.23-8.35,22.38-7.49,34.27C922.43,1645.72,931.63,1664.6,950.84,1674.25z"/>
	<path class="st2" d="M2819.56,1722.54c15.42,30.46,54.25,35.06,81.85,21.15c47.58-23.84,95.12-47.68,142.64-71.56
		c19.15-9.65,28-28.46,28.59-48.08c0.75-12.07-1.78-24.38-7.81-34.58c-14.52-29.23-55.33-36.79-81.83-21.15
		c-47.58,23.88-95.07,47.7-142.68,71.53c-30.42,15.34-35.06,54.41-21.15,81.89C2819.31,1722.02,2819.46,1722.25,2819.56,1722.54z"/>
	<path class="st2" d="M905.2,2427.67c52.12-10.93,104.13-21.83,156.2-32.83c14.66-3.12,25.91-11.93,33.33-23.32
		c3.83-5.55,6.44-11.66,7.88-18.17c2.82-10.32,3.21-21.38,0.98-31.8c-0.18-0.61-0.32-1.28-0.45-1.96
		c-6.44-29.3-27.66-42.41-50.38-43.16c-7.03-1.07-14.73-0.82-22.92,1c-51.86,11.61-103.82,23.24-155.71,34.88
		C798.69,2329.24,830.2,2443.45,905.2,2427.67z"/>
	<path class="st2" d="M2892.27,2327.7c-5.21,27.43,6.63,56.82,42.07,64.27c51.91,11.63,103.87,23.2,155.75,34.81
		c30.42,6.85,66.32-9.09,73.38-41.98c0.14-0.64,0.3-1.35,0.41-2c6.54-30.35-8.86-66.41-41.98-73.33
		c-52.04-10.95-104.1-21.9-156.18-32.87C2925.56,2267.7,2897.94,2296.39,2892.27,2327.7z"/>
	<path class="st2" d="M1245.15,3052.31c0.41,0.36,0.85,0.68,1.23,1.03c23.24,18.67,62.79,26.75,84.54-0.55
		c33.1-41.64,66.21-83.3,99.35-124.93c20.27-25.46,24.5-59.86-0.59-84.56c-1.35-1.34-2.8-2.6-4.39-3.82
		c-22.4-17.83-61.02-19.58-80.39,4.23c-33.4,41.37-66.85,82.74-100.33,124.11C1225.8,2991.06,1217.95,3030.48,1245.15,3052.31z"/>
	<path class="st2" d="M2567.13,2927.18c33.11,41.66,66.27,83.28,99.4,124.85c21.86,27.59,61.68,17.85,84.56-0.53
		c0.41-0.32,0.77-0.66,1.23-0.98c27.34-21.95,18.01-61.7-0.61-84.54c-33.51-41.28-67.07-82.58-100.63-123.9
		c-10.95-13.75-28.71-18.56-45.88-16.83c-14.69,1.46-29.01,7.65-38.64,17.46c-9.95,10.07-15,21.52-16.32,33.26
		C2548.28,2893.73,2554.77,2912.02,2567.13,2927.18z"/>
	<path class="st2" d="M1997.86,3319.67c0.32-0.05,0.62-0.05,0.89-0.07c32.37-0.04,60.17-26.71,60.15-59.38
		c-0.05-53.21-0.18-106.5-0.23-159.65c-0.05-32.4-26.77-60.15-59.49-60.13c-0.32,0.03-0.59,0.02-0.85,0.02
		c-16.94,0-30.26,5.83-39.8,14.87c-12.11,9.58-20.35,24.41-20.28,44.53c0.02,53.23,0.12,106.46,0.25,159.58
		C1938.46,3291.89,1965.17,3319.66,1997.86,3319.67z"/>
</g>
<rect x="1980.35" y="0" class="st3" width="36.45" height="735.04"/>
<path class="st2" d="M2315.67,1450.45l-0.23-147.88c-0.04-24.82-20.19-44.96-45.12-44.9l-144.09,0.19l-0.1-0.19h-312.98l-0.27,0.66
	l-90.27,0.14c-24.93,0.05-45.01,20.24-45.01,45.12l0.18,147.87c-260.82,121.03-441.71,385.38-441.27,691.81
	c0.66,420.47,342.03,760.82,762.39,760.24c420.42-0.66,760.77-342.05,760.11-762.45
	C2758.61,1834.53,2576.93,1570.73,2315.67,1450.45z"/>
<g>
	<path d="M1588.02,1802.39v-17.16c-0.38-5.33,2.09-8.58,7.43-9.72c3.81-1.14,7.43-1.62,10.87-1.43c3.43,0.2,7.05,0.67,10.87,1.43
		c6.48,1.91,10.67,4.1,12.58,6.58c1.9,2.48,2.47,6.96,1.71,13.44c-3.06,25.93-4.86,51.66-5.43,77.2
		c-0.57,25.55-0.86,51.28-0.86,77.2c0,8.77-0.77,13.92-2.29,15.44c-1.53,1.53-7.06,0.57-16.58-2.86
		c-9.53-3.43-14.87-10.48-16.01-21.16c-1.53-11.44-3.06-22.88-4.57-34.31c-1.53-11.44-3.63-22.68-6.29-33.74
		c-1.91-9.91-4.29-19.73-7.15-29.45c-2.86-9.72-6.96-18.96-12.3-27.74c-2.67-3.81-4.77-6.76-6.29-8.86
		c-1.53-2.09-3.15-3.15-4.86-3.15c-1.72,0-3.53,0.86-5.43,2.57c-1.91,1.72-4.57,4.49-8.01,8.29c-6.49,7.63-11.63,16.97-15.44,28.02
		c-4.2,12.58-7.53,25.26-10.01,38.03c-2.48,12.78-4.67,25.83-6.58,39.17c-1.91,14.11-3.06,28.22-3.43,42.32
		c-0.38,14.11-0.38,28.41,0,42.89c0.37,9.92,1.14,19.64,2.29,29.17c1.14,9.53,3.05,19.26,5.72,29.17
		c1.52,6.49,3.62,12.68,6.29,18.59c2.66,5.92,5.52,11.54,8.58,16.87c1.52,2.29,3.05,4.39,4.58,6.29c1.52,1.91,3.23,3.82,5.15,5.72
		c2.66,2.67,5.91,3.24,9.72,1.72c4.95-1.9,9.44-4.29,13.44-7.15c4-2.86,7.91-6,11.72-9.44c7.24-6.48,13.44-13.53,18.59-21.16
		c5.15-7.62,9.81-15.63,14.01-24.02c3.81-6.48,8.77-7.81,14.87-4c2.66,1.53,4,4,4,7.43c0,4.96-0.57,9.92-1.71,14.87
		c-3.06,10.68-6.96,20.59-11.72,29.74c-4.77,9.15-10.39,18.11-16.87,26.88c-2.29,3.05-4.86,5.62-7.72,7.72
		c-2.86,2.09-5.82,4.09-8.86,6c-3.43,3.05-8.2,4.19-14.3,3.43c-22.11-1.53-40.66-8.01-55.65-19.44
		c-14.98-11.44-27.38-26.88-37.17-46.32c-5.29-10.67-9.15-21.73-11.6-33.17c-2.45-11.44-4.06-22.87-4.81-34.31
		c-1.53-25.16-1.15-50.13,1.12-74.91c2.27-24.78,6.62-49.56,13.04-74.34c1.88-6.86,4.14-13.63,6.78-20.3
		c2.65-6.67,5.67-13.24,9.06-19.73c7.92-15.24,18.43-26.11,31.54-32.6c13.11-6.48,28.24-8.19,45.4-5.15
		C1567.62,1785.24,1578.48,1791.72,1588.02,1802.39z"/>
	<path d="M1646.34,2006.55c0-32.02,5.52-60.81,16.58-86.35c1.52-4.58,3.81-9.15,6.86-13.72c3.81-6.48,8.95-9.72,15.44-9.72
		c6.48,0,12.67-0.57,18.59-1.72c5.91-1.14,11.91-1.52,18.01-1.14c23.63,1.53,40.41,13.15,50.32,34.88c3.05,6.49,5.05,13.06,6,19.73
		c0.95,6.67,1.8,13.44,2.57,20.3c0,1.91,0.19,3.43,0.57,4.58c0.38,3.06,0.95,4.86,1.71,5.43c0.76,0.57,2.86,0.29,6.29-0.86
		c5.72-1.52,12.01-4.19,18.87-8.01c1.14-0.76,2.38-1.43,3.72-2c1.33-0.57,2.57-1.05,3.72-1.43c4.57-1.52,8.19,0,10.87,4.58
		c2.29,3.82,1.9,7.25-1.14,10.29c-11.06,10.68-23.45,18.5-37.17,23.45c-3.06,1.14-5.34,2.57-6.86,4.29
		c-1.53,1.72-2.48,4.29-2.86,7.72c-3.06,24.4-10.11,47.28-21.16,68.62c-1.91,2.67-3.72,5.25-5.43,7.72
		c-1.71,2.48-3.53,4.86-5.43,7.15c-4.2,4.96-9.06,8.77-14.58,11.44c-5.53,2.67-11.25,4.2-17.16,4.57
		c-5.91,0.38-11.82-0.38-17.73-2.29c-5.91-1.9-11.35-5.15-16.3-9.72c-8.01-6.86-14.11-14.58-18.3-23.16
		c-4.2-8.58-7.63-17.82-10.29-27.74c-1.91-8.38-3.43-16.58-4.58-24.59C1646.34,2020.85,1645.95,2013.41,1646.34,2006.55z
		 M1691.52,1989.39c-1.53,0.77-2.29,2.48-2.29,5.15c-3.06,27.45,0.19,53.38,9.72,77.77c2.29,5.34,4.95,9.72,8.01,13.15
		c3.05,3.43,5.33,5.06,6.86,4.86c1.52-0.19,3.23-2.38,5.15-6.58c5.72-10.29,9.81-21.16,12.3-32.6c2.48-11.44,4.86-22.68,7.15-33.74
		c0.37-1.52,0.37-3.05,0-4.57c-0.38-1.52-1.71-2.48-4-2.86c-8.01-1.9-15.54-4.57-22.59-8.01
		C1704.76,1998.54,1697.99,1994.35,1691.52,1989.39z M1740.13,1982.53c0.76-9.53,0.37-18.67-1.14-27.45
		c-1.53-8.77-3.82-17.34-6.86-25.73c-2.29-4.95-5.15-9.15-8.58-12.58c-3.06-3.05-5.34-4.48-6.86-4.29c-1.53,0.2-3.63,1.81-6.29,4.86
		c-5.34,6.86-8.49,15.44-9.44,25.73c-0.96,10.29,0.66,19.26,4.86,26.88c1.9,3.43,4.19,5.53,6.86,6.29
		c4.19,1.53,8.48,2.96,12.87,4.29C1729.92,1981.87,1734.78,1982.53,1740.13,1982.53z"/>
	<path d="M1963.15,1941.93c1.9-4.95,3.91-9.53,6-13.72c2.09-4.19,4.48-8.38,7.15-12.58c5.33-7.62,11.62-12.29,18.87-14.01
		c7.24-1.72,14.87-1.23,22.87,1.43c4.95,1.53,8.77,4,11.44,7.43c2.66,3.43,4.57,7.43,5.72,12.01c3.05,11.44,4.58,22.12,4.58,32.02
		c0.37,12.97,0.19,25.83-0.57,38.6c-0.77,12.78-1.14,25.45-1.14,38.03c0,6.49,0.09,12.97,0.29,19.44
		c0.19,6.49,0.29,12.97,0.29,19.44c0,5.34,0.95,11.25,2.86,17.73c1.9,0.38,3.15,0,3.72-1.14c0.57-1.14,1.23-2.29,2-3.43
		c9.53-15.24,17.06-31.17,22.59-47.75c5.52-16.58,10.19-33.45,14.01-50.61c0.76-3.81,1.52-7.05,2.29-9.72
		c1.14-3.05,3.43-4.19,6.86-3.43c2.66,0.38,4,2.29,4,5.72c-0.38,2.29-0.57,4.67-0.57,7.15c0,2.48-0.2,4.86-0.57,7.15
		c-3.43,15.64-7.25,31.17-11.44,46.61c-4.2,15.44-9.53,30.41-16.01,44.89c-4.58,11.44-12.01,20.59-22.3,27.45
		c-5.74,3.82-12.27,4.96-19.61,3.43c-19.32-6.48-30.7-19.25-34.15-38.31c-1.91-9.53-2.77-18.96-2.57-28.31
		c0.19-9.34,0.29-18.96,0.29-28.88c0.38-12.2,1.14-24.21,2.29-36.03c1.14-11.81,2.09-23.82,2.86-36.03c0.38-1.9,0.57-3.81,0.57-5.72
		c0-1.9-0.2-4.19-0.57-6.86c-1.91,1.91-3.34,4-4.29,6.29c-0.96,2.29-1.81,4.39-2.57,6.29c-5.34,12.58-9.53,25.26-12.58,38.03
		c-3.06,12.78-5.91,25.83-8.58,39.17c-0.38,1.91-0.67,3.63-0.86,5.15c-0.2,1.53-0.67,3.24-1.43,5.15c-0.77,2.67-1.34,5.43-1.72,8.29
		c-0.38,2.86-2.1,4.86-5.15,6c-3.43,1.14-6.96,2.2-10.58,3.15c-3.63,0.96-7.35,0.86-11.15-0.29c-1.14-0.37-2.2-0.66-3.15-0.86
		c-0.96-0.19-2-0.47-3.14-0.86c-3.06-1.14-5.43-2.09-7.15-2.86c-1.72-0.76-2.96-1.72-3.72-2.86c-0.77-1.14-1.34-2.66-1.72-4.58
		c-0.38-1.9-0.57-4.38-0.57-7.43c-0.77-19.44-1.14-38.89-1.14-58.33c0-19.44-0.77-38.89-2.29-58.33c-0.38-0.76-0.48-1.72-0.29-2.86
		c0.19-1.14-0.1-2.29-0.86-3.43c-1.91,0-3.06,0.67-3.43,2c-0.38,1.34-0.96,2.39-1.72,3.15c-1.91,4.2-3.53,8.58-4.86,13.15
		c-1.34,4.58-2.77,8.96-4.29,13.15c-4.58,15.25-8.1,30.51-10.58,45.75c-2.48,15.25-4.67,30.69-6.58,46.32
		c-1.53,11.06-2.96,21.83-4.29,32.31c-1.34,10.49-2.57,21.26-3.72,32.31c-0.77,7.25-2.67,12.39-5.72,15.44
		c-3.05,3.06-8.58,4.96-16.58,5.72c-12.21,1.91-20.4-3.43-24.59-16.01c-1.91-6.48-3.53-13.05-4.86-19.73
		c-1.34-6.67-2.57-13.44-3.72-20.3c-0.77-8.38-1.53-16.67-2.29-24.88c-0.77-8.19-1.53-16.3-2.29-24.3
		c-1.91-17.16-3.53-33.93-4.86-50.32c-1.34-16.39-2.2-33.17-2.57-50.32c0-7.24,0.95-11.81,2.86-13.72c1.9-1.9,6.48-3.05,13.72-3.43
		c4.19-0.38,8.19-0.38,12.01,0c3.81,0.38,7.62,1.53,11.44,3.43c4.57,1.91,7.52,3.82,8.86,5.72c1.33,1.91,2.19,5.53,2.57,10.87
		c1.52,14.87,1.8,29.74,0.86,44.61c-0.96,14.87-1.24,29.93-0.86,45.18v28.59c1.9-1.14,2.95-2.48,3.14-4c0.19-1.52,0.47-2.86,0.86-4
		c1.9-14.48,3.72-28.78,5.43-42.89c1.72-14.1,4.09-28.4,7.15-42.89c1.9-7.24,3.81-14.48,5.72-21.73c1.9-7.24,4.38-14.3,7.43-21.16
		c0.37-1.14,0.95-2.47,1.71-4c2.66-5.72,5.72-10.77,9.15-15.15c3.43-4.38,8.77-6.58,16.01-6.58c8.38,0.38,15.73,2.1,22.02,5.15
		c6.29,3.06,11.34,8.39,15.15,16.01c3.05,6.1,5.15,12.39,6.29,18.87c1.14,6.49,2.29,12.97,3.43,19.44c0.37,1.91,0.57,3.72,0.57,5.43
		C1960.86,1937.64,1961.62,1939.64,1963.15,1941.93z"/>
	<path d="M2205.04,1977.96c0.38,1.91,0.66,4,0.86,6.29c0.19,2.29-0.1,4.39-0.86,6.29c-5.72,33.55-15.06,64.82-28.02,93.79
		c-1.53,3.82-3.63,7.63-6.29,11.44c-5.72,9.92-12.58,16.11-20.59,18.59c-8.01,2.48-18.11,1.05-30.31-4.29
		c-6.86-3.05-12.49-7.15-16.87-12.3c-4.39-5.15-8.1-11.15-11.15-18.01c-3.43-8.38-6-16.96-7.72-25.73
		c-1.72-8.77-3.53-17.53-5.43-26.31c-3.06-17.92-4.57-35.64-4.57-53.18c0-17.53,0.57-35.26,1.71-53.18v-9.72
		c0.38-4.19,1.14-7.24,2.29-9.15c1.14-1.9,3.81-3.23,8.01-4c14.87-4.19,28.97-2.47,42.32,5.15c5.72,3.06,8.01,8.39,6.86,16.01
		c-1.91,17.16-3.24,34.22-4,51.18c-0.77,16.97-0.96,34.03-0.57,51.18c0.38,9.53,0.66,18.97,0.86,28.31
		c0.19,9.35,1.23,18.78,3.15,28.31c0.76,2.67,1.43,5.15,2,7.43c0.57,2.29,2,4.77,4.29,7.43c3.43-4.95,6.58-9.62,9.44-14.01
		c2.86-4.38,5.62-9.05,8.29-14.01c6.09-12.2,11.05-24.68,14.87-37.46c3.81-12.77,7.24-25.82,10.29-39.17
		c0.76-2.29,1.52-4.48,2.29-6.58c0.76-2.09,1.52-4.29,2.29-6.58c1.9-4.19,5.15-5.91,9.72-5.15
		C2201.98,1970.91,2204.27,1973.38,2205.04,1977.96z M2083.23,1865.87c-0.77-8.01-1.24-16.01-1.43-24.02
		c-0.2-8.01-0.67-16.2-1.43-24.59c-0.38-3.43-0.67-6.95-0.86-10.58c-0.2-3.62-0.48-7.15-0.86-10.58c0-3.81,0.57-6.48,1.72-8.01
		c1.14-1.52,3.43-2.86,6.86-4c11.44-3.05,22.88-1.9,34.31,3.43c4.95,2.29,7.24,6.29,6.86,12.01c0,3.43-0.2,6.1-0.57,8.01h0.57
		c-0.77,8.77-1.53,17.44-2.29,26.02c-0.77,8.58-1.53,17.25-2.29,26.02c-0.38,3.43-0.86,6.86-1.43,10.29
		c-0.57,3.43-2.77,5.92-6.58,7.43c-8.77,4.2-17.92,4.39-27.45,0.57c-2.67-1.14-4.2-2.86-4.57-5.15
		C2083.42,1870.44,2083.23,1868.16,2083.23,1865.87z"/>
	<path d="M2352.58,2081.46c1.9-0.76,3.05-1.72,3.43-2.86c0.38-1.14,0.95-2.29,1.72-3.43c6.48-13.72,12.58-27.54,18.3-41.46
		c5.72-13.91,10.48-28.31,14.3-43.18c0.76-1.9,1.43-3.91,2-6c0.57-2.09,1.23-4.29,2-6.58c1.14-4.19,3.81-5.91,8.01-5.15
		c3.81,0.38,5.72,3.06,5.72,8.01c0.38,5.72,0,11.44-1.14,17.16c-1.14,5.72-2.48,11.25-4,16.58c-3.06,11.06-6.39,21.93-10.01,32.6
		c-3.63,10.68-7.92,21.16-12.87,31.45c-1.91,3.82-3.91,7.43-6,10.87c-2.1,3.43-4.1,7.06-6,10.87c-2.67,4.58-6.49,7.92-11.44,10.01
		c-4.96,2.1-10.11,3.15-15.44,3.15c-5.34,0-10.58-1.05-15.73-3.15c-5.15-2.09-9.06-5.05-11.72-8.86
		c-4.57-6.09-8.39-12.38-11.44-18.87c-3.06-6.48-4.96-13.53-5.72-21.16c-2.29-14.87-3.82-29.74-4.57-44.61
		c-0.77-14.87-0.38-29.74,1.14-44.61c0.76-8.77,1.14-17.44,1.14-26.02s0.19-17.25,0.57-26.02c-1.91,0.38-3.05,1.14-3.43,2.29
		c-0.38,1.14-0.96,2.29-1.71,3.43c-6.86,15.25-12.97,30.79-18.3,46.61c-5.34,15.82-10.11,31.74-14.3,47.75
		c-1.91,6.49-3.53,13.15-4.86,20.02c-1.34,6.86-2.96,13.54-4.86,20.01c-1.91,6.86-3.43,13.82-4.58,20.87
		c-1.14,7.06-1.53,14.21-1.14,21.44c0,3.82-0.48,6.29-1.43,7.43c-0.96,1.14-3.14,2.1-6.58,2.86c-4.96,0.77-9.82,1.05-14.58,0.86
		c-4.77-0.19-9.63-1.05-14.58-2.57c-5.34-1.52-9.25-3.81-11.72-6.86c-2.48-3.05-4.1-7.24-4.86-12.58
		c-1.14-8.77-1.63-17.44-1.43-26.02c0.19-8.58-0.1-17.25-0.86-26.02c-1.91-20.59-2.57-40.89-2-60.9c0.57-20.01,1.23-40.32,2-60.9
		c0.38-8.38,1.8-13.81,4.29-16.3c2.48-2.47,7.91-4.09,16.3-4.86c8.01-0.76,15.82,0.38,23.45,3.43c4.95,1.91,8.01,4,9.15,6.29
		c1.14,2.29,0.95,6.1-0.57,11.44c-4.57,19.44-7.15,38.99-7.72,58.62c-0.57,19.64-1.05,39.74-1.43,60.33c1.9-1.9,2.95-3.62,3.15-5.15
		c0.19-1.52,0.66-3.05,1.43-4.57c4.57-19.44,9.62-38.6,15.15-57.47c5.52-18.87,11.91-37.46,19.16-55.76
		c2.66-8.38,7.05-16.2,13.15-23.45c4.95-5.33,10.38-8.58,16.3-9.72c5.91-1.14,12.1-0.95,18.59,0.57
		c12.2,3.06,20.02,10.49,23.45,22.3c1.52,5.34,2.47,10.68,2.86,16.01c0.38,5.34,0.95,10.68,1.72,16.01
		c1.14,14.87,1.62,29.74,1.43,44.61c-0.2,14.87-0.1,29.55,0.29,44.03c0,8.77,0,17.25,0,25.45c0,8.2,1.33,16.5,4,24.88
		c0.38,1.53,0.66,2.86,0.86,4C2350.76,2079.75,2351.44,2080.7,2352.58,2081.46z"/>
	<path d="M2502.97,1992.25c-0.38,0.77-0.77,1.34-1.14,1.72c-0.38,0.38-0.77,0.96-1.14,1.72c-6.49,17.16-13.44,33.84-20.87,50.04
		c-7.44,16.21-14.97,32.51-22.59,48.89c-2.29,4.96-4.86,9.53-7.72,13.72c-2.86,4.2-7.53,6.29-14.01,6.29
		c-6.86-0.38-13.25-1.72-19.16-4c-5.91-2.29-10.96-6.67-15.15-13.15c-3.82-5.72-6.68-11.81-8.58-18.3
		c-1.91-6.48-3.43-13.15-4.58-20.02c-1.91-11.05-2.57-22.02-2-32.88c0.57-10.87,1.43-21.82,2.57-32.88
		c1.14-11.44,2.95-22.59,5.43-33.45c2.48-10.87,5.81-21.82,10.01-32.88c1.9-4.95,4.29-9.72,7.15-14.3
		c2.86-4.57,5.81-9.15,8.86-13.72c4.95-6.86,11.62-11.72,20.01-14.58c8.38-2.86,16.77-3.9,25.16-3.15
		c8.38,0.77,16.1,3.24,23.16,7.43c7.05,4.2,12.1,9.72,15.15,16.58c0.38,1.91,1.33,3.43,2.86,4.58c0.38,0,0.57-0.09,0.57-0.29
		c0-0.19,0.19-0.29,0.57-0.29h0.57c1.52-5.72,3.52-9.53,6-11.44c2.48-1.9,6.58-2.86,12.3-2.86c1.52,0.38,3.05,0.67,4.57,0.86
		c1.52,0.2,3.23,0.48,5.15,0.86c6.86,1.53,11.44,3.72,13.72,6.58c2.29,2.86,3.05,7.92,2.29,15.15c-1.91,13.35-2.86,26.59-2.86,39.74
		c0,13.15,0.19,26.4,0.57,39.75c0.76,24.02,0.57,47.66-0.57,70.91c-1.14,23.26-3.06,46.71-5.72,70.34
		c-1.91,15.24-4.57,30.11-8.01,44.61c-3.43,14.48-9.15,28.4-17.16,41.75c-7.25,12.2-16.21,21.92-26.88,29.16
		c-10.68,7.24-23.26,11.05-37.74,11.44c-22.5,0-36.41-11.06-41.75-33.17c-3.06-10.68-3.63-20.87-1.72-30.6
		c1.9-9.72,5.15-19.35,9.72-28.88c14.87-32.02,38.5-55.85,70.91-71.48c1.9-0.76,3.52-1.62,4.86-2.57c1.33-0.95,2.19-2.76,2.57-5.43
		c0.76-16.39,2.09-32.6,4-48.61c1.9-16.01,2.66-32.21,2.29-48.61v-4c-0.38,0-0.67-0.09-0.86-0.29
		C2503.64,1992.35,2503.35,1992.25,2502.97,1992.25z M2436.07,2081.46c2.29-3.43,3.62-5.33,4-5.72
		c9.91-19.44,19.16-38.98,27.74-58.62c8.58-19.63,17.63-39.17,27.16-58.62c1.52-2.66,1.9-5.52,1.14-8.58
		c-2.67-6.48-5.15-13.15-7.43-20.02c-2.29-6.86-5.53-13.34-9.72-19.44c-3.06-4.19-5.43-6.29-7.15-6.29s-3.72,2.67-6,8.01
		c-2.67,4.96-5.06,10.01-7.15,15.15c-2.1,5.15-4.1,10.39-6,15.73c-4.57,14.49-8.2,28.98-10.87,43.46
		c-2.67,14.49-4.57,29.17-5.72,44.03c-0.77,8.01-1.34,16.11-1.72,24.3C2433.97,2063.07,2434.54,2071.94,2436.07,2081.46z
		 M2493.82,2122.07c-1.53,0-2.67,0.19-3.43,0.57c-12.21,9.53-22.3,20.3-30.31,32.31c-8.01,12.01-13.72,25.45-17.16,40.32
		c-1.91,7.24-2.57,14.49-2,21.73c0.57,7.24,2.95,14.1,7.15,20.59c1.9,3.05,3.33,4.76,4.29,5.15c0.95,0.38,2.95-0.77,6-3.43
		c4.19-4.2,7.81-8.77,10.87-13.72c3.05-4.96,5.52-10.11,7.43-15.44c4.19-9.92,7.24-20.11,9.15-30.59
		c1.9-10.49,3.81-21.07,5.72-31.74c0.76-4.2,1.52-8.49,2.29-12.87C2494.58,2130.55,2494.58,2126.26,2493.82,2122.07z"/>
	<path d="M1845.92,2299.63c-0.77,13.72-1.91,27.26-3.43,40.6c-1.53,13.35-4.39,26.5-8.58,39.46c-1.14,4.57-2.48,9.06-4,13.44
		c-1.53,4.39-3.43,8.68-5.72,12.87c-3.82,6.49-9.06,10.11-15.73,10.87c-6.68,0.77-12.49-1.9-17.44-8.01
		c-1.53-1.14-1.72-2.66-0.57-4.57c5.72-8.01,9.62-16.67,11.72-26.02c2.09-9.34,3.91-18.77,5.43-28.31
		c2.29-16.01,3.43-31.74,3.43-47.18s-1.53-31.17-4.58-47.18c-1.91-8.76-3.91-13.91-6-15.44c-2.1-1.52-7.53,0.38-16.3,5.72
		c-6.49,3.82-12.39,8.2-17.73,13.15c-5.34,4.96-10.29,10.49-14.87,16.58c-10.29,13.35-19.54,27.07-27.73,41.17
		c-8.2,14.11-14.97,29.16-20.3,45.18c-4.96,16.01-7.63,31.84-8.01,47.47c-0.38,7.25,2.09,13.92,7.44,20.02
		c4.19,4.96,9.34,8.77,15.44,11.44c10.67,4.96,21.53,9.15,32.6,12.58c11.05,3.43,22.3,6.29,33.74,8.58
		c19.44,4.2,36.22,13.54,50.32,28.02c11.05,11.06,13.72,23.83,8.01,38.32c-5.34,14.11-12.68,26.22-22.02,36.31
		c-9.35,10.1-21.45,17.24-36.31,21.45c-11.82,3.05-24.4,3.43-37.74,1.14c-8.77-1.91-16.87-4.86-24.3-8.86
		c-7.43-4-14.58-8.68-21.45-14.01c-1.53-0.77-2.96-1.91-4.29-3.43c-1.34-1.53-1.43-3.24-0.28-5.15c1.14-1.9,2.66-2.57,4.57-2
		c1.9,0.57,3.62,1.24,5.15,2c19.06,7.24,36.21,5.72,51.47-4.57c5.72-3.81,11.34-7.72,16.87-11.72c5.52-4,10.58-8.67,15.15-14.01
		c3.05-4.19,6.09-8.95,9.15-14.3c2.66-4.19,1.72-7.43-2.86-9.72c-4.2-1.9-8.39-3.62-12.58-5.15c-4.2-1.52-8.39-2.86-12.58-4
		c-7.63-1.9-15.15-3.62-22.59-5.15c-7.43-1.52-14.97-3.23-22.59-5.15c-4.57-1.14-9.06-2.57-13.44-4.29
		c-4.39-1.71-8.68-3.52-12.87-5.43c-14.49-6.48-25.36-15.34-32.6-26.59c-7.25-11.24-11.25-24.68-12.01-40.32
		c-0.38-9.91,0.19-19.82,1.72-29.74c1.52-9.91,3.81-19.63,6.86-29.16c6.48-20.2,14.67-39.17,24.59-56.9
		c9.91-17.73,22.68-33.83,38.32-48.32c7.62-7.62,15.91-13.91,24.88-18.87c8.95-4.95,18.77-8.38,29.45-10.29
		c6.86-1.14,13.72-0.86,20.59,0.86c6.86,1.71,13.15,4.57,18.87,8.58c5.72,4,10.58,8.86,14.58,14.58c4,5.72,6.76,12.01,8.29,18.87
		c1.52,7.63,2.66,15.06,3.43,22.3C1847.26,2284.57,1847.07,2292.01,1845.92,2299.63z"/>
	<path d="M1853.35,2443.74c0-32.02,5.52-60.81,16.58-86.35c1.52-4.58,3.81-9.15,6.86-13.73c3.81-6.48,8.95-9.72,15.44-9.72
		c6.48,0,12.67-0.57,18.59-1.71c5.91-1.15,11.91-1.52,18.01-1.15c23.63,1.53,40.41,13.15,50.32,34.88c3.05,6.49,5.05,13.06,6,19.73
		c0.95,6.68,1.8,13.44,2.57,20.3c0,1.91,0.19,3.43,0.57,4.57c0.38,3.06,0.95,4.86,1.72,5.43c0.76,0.57,2.86,0.29,6.29-0.86
		c5.72-1.52,12.01-4.19,18.87-8.01c1.14-0.76,2.38-1.43,3.72-2c1.33-0.57,2.57-1.05,3.72-1.43c4.57-1.52,8.19,0,10.87,4.57
		c2.29,3.82,1.9,7.25-1.14,10.29c-11.06,10.68-23.45,18.5-37.17,23.45c-3.06,1.14-5.34,2.57-6.86,4.29
		c-1.53,1.71-2.48,4.29-2.86,7.72c-3.05,24.4-10.11,47.28-21.16,68.62c-1.91,2.67-3.72,5.25-5.43,7.72
		c-1.72,2.48-3.53,4.86-5.43,7.15c-4.2,4.96-9.06,8.78-14.58,11.44c-5.53,2.67-11.25,4.2-17.16,4.57
		c-5.92,0.38-11.82-0.38-17.73-2.29c-5.92-1.9-11.35-5.15-16.3-9.72c-8.01-6.86-14.11-14.58-18.3-23.16
		c-4.2-8.58-7.63-17.82-10.29-27.74c-1.91-8.38-3.43-16.58-4.57-24.59C1853.35,2458.03,1852.97,2450.6,1853.35,2443.74z
		 M1898.53,2426.58c-1.53,0.77-2.29,2.48-2.29,5.15c-3.06,27.45,0.19,53.38,9.72,77.77c2.29,5.34,4.95,9.72,8.01,13.15
		c3.05,3.43,5.33,5.06,6.86,4.86c1.52-0.19,3.23-2.38,5.15-6.58c5.72-10.29,9.81-21.16,12.29-32.6c2.48-11.44,4.86-22.68,7.15-33.74
		c0.37-1.52,0.37-3.05,0-4.57c-0.38-1.52-1.72-2.48-4-2.86c-8.01-1.9-15.54-4.57-22.59-8.01
		C1911.77,2435.73,1905.01,2431.54,1898.53,2426.58z M1947.14,2419.72c0.76-9.53,0.38-18.68-1.14-27.45
		c-1.53-8.77-3.82-17.34-6.86-25.73c-2.29-4.95-5.15-9.15-8.58-12.58c-3.06-3.05-5.34-4.48-6.86-4.29c-1.53,0.2-3.63,1.81-6.29,4.86
		c-5.34,6.86-8.49,15.44-9.44,25.73c-0.96,10.29,0.66,19.25,4.86,26.88c1.9,3.43,4.19,5.53,6.86,6.29
		c4.19,1.53,8.48,2.96,12.87,4.29C1936.93,2419.06,1941.79,2419.72,1947.14,2419.72z"/>
	<path d="M2012.9,2443.74c0-32.02,5.52-60.81,16.58-86.35c1.52-4.58,3.81-9.15,6.86-13.73c3.81-6.48,8.95-9.72,15.44-9.72
		c6.48,0,12.67-0.57,18.59-1.71c5.91-1.15,11.91-1.52,18.01-1.15c23.63,1.53,40.41,13.15,50.32,34.88c3.05,6.49,5.05,13.06,6,19.73
		c0.95,6.68,1.8,13.44,2.57,20.3c0,1.91,0.19,3.43,0.57,4.57c0.38,3.06,0.95,4.86,1.72,5.43c0.76,0.57,2.86,0.29,6.29-0.86
		c5.72-1.52,12.01-4.19,18.87-8.01c1.14-0.76,2.38-1.43,3.72-2c1.33-0.57,2.57-1.05,3.72-1.43c4.57-1.52,8.19,0,10.87,4.57
		c2.29,3.82,1.9,7.25-1.14,10.29c-11.06,10.68-23.45,18.5-37.17,23.45c-3.06,1.14-5.34,2.57-6.86,4.29
		c-1.53,1.71-2.48,4.29-2.86,7.72c-3.06,24.4-10.11,47.28-21.16,68.62c-1.91,2.67-3.72,5.25-5.43,7.72
		c-1.71,2.48-3.53,4.86-5.43,7.15c-4.2,4.96-9.06,8.78-14.58,11.44c-5.53,2.67-11.25,4.2-17.16,4.57
		c-5.91,0.38-11.82-0.38-17.73-2.29c-5.91-1.9-11.35-5.15-16.3-9.72c-8.01-6.86-14.11-14.58-18.3-23.16
		c-4.2-8.58-7.63-17.82-10.29-27.74c-1.91-8.38-3.43-16.58-4.58-24.59C2012.9,2458.03,2012.51,2450.6,2012.9,2443.74z
		 M2058.07,2426.58c-1.53,0.77-2.29,2.48-2.29,5.15c-3.06,27.45,0.19,53.38,9.72,77.77c2.29,5.34,4.95,9.72,8.01,13.15
		c3.05,3.43,5.33,5.06,6.86,4.86c1.52-0.19,3.23-2.38,5.15-6.58c5.72-10.29,9.81-21.16,12.29-32.6c2.48-11.44,4.86-22.68,7.15-33.74
		c0.37-1.52,0.37-3.05,0-4.57c-0.38-1.52-1.71-2.48-4-2.86c-8.01-1.9-15.54-4.57-22.59-8.01
		C2071.32,2435.73,2064.55,2431.54,2058.07,2426.58z M2106.68,2419.72c0.76-9.53,0.37-18.68-1.14-27.45
		c-1.53-8.77-3.82-17.34-6.86-25.73c-2.29-4.95-5.15-9.15-8.58-12.58c-3.06-3.05-5.34-4.48-6.86-4.29c-1.53,0.2-3.63,1.81-6.29,4.86
		c-5.34,6.86-8.49,15.44-9.44,25.73c-0.96,10.29,0.66,19.25,4.86,26.88c1.9,3.43,4.19,5.53,6.86,6.29
		c4.19,1.53,8.48,2.96,12.87,4.29C2096.48,2419.06,2101.34,2419.72,2106.68,2419.72z"/>
	<path d="M2341.14,2518.65c1.9-0.76,3.05-1.72,3.43-2.86c0.38-1.14,0.95-2.29,1.71-3.43c6.48-13.72,12.58-27.54,18.3-41.46
		c5.72-13.91,10.48-28.31,14.3-43.18c0.76-1.9,1.43-3.91,2-6c0.57-2.09,1.23-4.29,2-6.58c1.14-4.19,3.81-5.91,8.01-5.15
		c3.81,0.38,5.72,3.06,5.72,8.01c0.37,5.72,0,11.44-1.14,17.16c-1.14,5.72-2.48,11.25-4,16.58c-3.06,11.06-6.39,21.93-10.01,32.6
		c-3.63,10.68-7.92,21.16-12.87,31.45c-1.91,3.82-3.91,7.43-6.01,10.87c-2.1,3.43-4.1,7.06-6,10.86
		c-2.67,4.58-6.49,7.92-11.44,10.01c-4.96,2.1-10.11,3.15-15.44,3.15c-5.34,0-10.58-1.05-15.73-3.15
		c-5.15-2.09-9.06-5.05-11.72-8.86c-4.57-6.09-8.39-12.39-11.44-18.87c-3.06-6.48-4.96-13.53-5.72-21.16
		c-2.29-14.87-3.82-29.74-4.58-44.61c-0.77-14.87-0.38-29.74,1.14-44.61c0.76-8.77,1.14-17.44,1.14-26.02
		c0-8.58,0.19-17.25,0.57-26.02c-1.91,0.38-3.06,1.14-3.43,2.29c-0.38,1.14-0.96,2.29-1.72,3.43c-6.86,15.25-12.97,30.79-18.3,46.61
		c-5.34,15.83-10.11,31.74-14.3,47.75c-1.91,6.49-3.53,13.15-4.86,20.02c-1.34,6.86-2.96,13.54-4.86,20.01
		c-1.91,6.86-3.43,13.82-4.57,20.87c-1.14,7.06-1.53,14.21-1.14,21.44c0,3.82-0.48,6.29-1.43,7.44c-0.96,1.14-3.15,2.1-6.58,2.86
		c-4.96,0.77-9.82,1.05-14.58,0.86c-4.77-0.19-9.63-1.05-14.58-2.57c-5.34-1.52-9.25-3.81-11.72-6.86
		c-2.48-3.05-4.1-7.24-4.86-12.58c-1.14-8.77-1.63-17.44-1.43-26.02c0.19-8.58-0.1-17.25-0.86-26.02c-1.91-20.59-2.57-40.89-2-60.91
		c0.57-20.02,1.23-40.32,2-60.9c0.37-8.38,1.8-13.81,4.29-16.3c2.48-2.47,7.91-4.09,16.3-4.86c8.01-0.76,15.82,0.38,23.45,3.43
		c4.95,1.91,8.01,4,9.15,6.29c1.14,2.29,0.95,6.1-0.57,11.44c-4.57,19.44-7.15,38.99-7.72,58.62c-0.57,19.64-1.05,39.74-1.43,60.33
		c1.9-1.9,2.95-3.62,3.14-5.15c0.19-1.52,0.66-3.05,1.43-4.57c4.57-19.44,9.62-38.6,15.15-57.47c5.52-18.87,11.91-37.46,19.16-55.76
		c2.66-8.38,7.05-16.2,13.15-23.45c4.95-5.33,10.38-8.58,16.3-9.72c5.91-1.14,12.1-0.95,18.59,0.57
		c12.2,3.06,20.02,10.49,23.45,22.3c1.52,5.34,2.48,10.68,2.86,16.01c0.38,5.34,0.95,10.68,1.72,16.01
		c1.14,14.87,1.62,29.74,1.43,44.61c-0.2,14.87-0.1,29.55,0.29,44.03c0,8.77,0,17.25,0,25.45c0,8.2,1.33,16.49,4,24.88
		c0.37,1.53,0.66,2.86,0.86,4C2339.33,2516.94,2340,2517.89,2341.14,2518.65z"/>
</g>
</svg>
